<svg width="261" height="242" viewBox="0 0 261 242" fill="none" xmlns="http://www.w3.org/2000/svg">
<path d="M12.9999 127.499C25.9999 139.499 43.8165 147.945 87.572 149.79M87.572 149.79C142.266 152.096 127.203 106.355 97.6228 101.614C68.0426 96.8721 63.2505 133.386 87.572 149.79ZM87.572 149.79C96.2574 157.782 117.965 173.4 135.314 171.935C157 170.103 187.5 157 202.5 140.5" stroke="#C4C4C4" stroke-opacity="0.7" stroke-width="3" stroke-dasharray="9 9"/>
<path d="M216.764 110.277C222.848 107.404 229.546 112.869 227.952 119.407L222.928 140.008C221.535 145.723 214.656 148.03 210.098 144.311L195.947 132.763C191.389 129.044 192.269 121.842 197.589 119.331L216.764 110.277Z" fill="#C4C4C4" fill-opacity="0.7"/>
</svg>
