<svg width="268" height="376" viewBox="0 0 268 376" fill="none" xmlns="http://www.w3.org/2000/svg">
<g clip-path="url(#clip0_221_722)">
<path d="M0.591919 30C0.591919 13.4315 14.0234 0 30.5919 0H237.857C254.425 0 267.857 13.4315 267.857 30V346C267.857 362.569 254.425 376 237.857 376H30.5919C14.0234 376 0.591919 362.569 0.591919 346V30Z" fill="#FDC995"/>
<mask id="mask0_221_722" style="mask-type:alpha" maskUnits="userSpaceOnUse" x="0" y="0" width="268" height="376">
<path d="M0.591919 30C0.591919 13.4315 14.0234 0 30.5919 0H237.857C254.425 0 267.857 13.4315 267.857 30V346C267.857 362.569 254.425 376 237.857 376H30.5919C14.0234 376 0.591919 362.569 0.591919 346V30Z" fill="white"/>
</mask>
<g mask="url(#mask0_221_722)">
<g opacity="0.1">
<mask id="path-3-inside-1_221_722" fill="white">
<path fill-rule="evenodd" clip-rule="evenodd" d="M168.229 199.718C143.39 198.741 123.554 178.297 123.554 153.219C123.554 127.518 144.389 106.683 170.09 106.683C180.11 106.683 189.39 109.85 196.984 115.237C203.41 97.2319 220.612 84.3459 240.824 84.3459C261.784 84.3459 279.507 98.202 285.333 117.254C292.801 112.15 301.831 109.165 311.559 109.165C337.26 109.165 358.095 130 358.095 155.701C358.095 180.779 338.259 201.223 313.42 202.2V287.068C313.42 290.934 310.286 294.068 306.42 294.068H175.229C171.363 294.068 168.229 290.934 168.229 287.068V199.718Z"/>
</mask>
<path d="M168.229 199.718H178.229V190.104L168.622 189.726L168.229 199.718ZM196.984 115.237L191.198 123.393L201.965 131.031L206.402 118.598L196.984 115.237ZM285.333 117.254L275.77 120.178L279.747 133.183L290.975 125.51L285.333 117.254ZM313.42 202.2L313.027 192.208L303.42 192.586V202.2H313.42ZM168.622 189.726C149.128 188.959 133.554 172.905 133.554 153.219H113.554C113.554 183.688 137.653 208.523 167.835 209.711L168.622 189.726ZM133.554 153.219C133.554 133.041 149.912 116.683 170.09 116.683V96.6832C138.866 96.6832 113.554 121.995 113.554 153.219H133.554ZM170.09 116.683C177.969 116.683 185.239 119.166 191.198 123.393L202.77 107.08C193.54 100.533 182.25 96.6832 170.09 96.6832V116.683ZM206.402 118.598C211.452 104.448 224.971 94.3459 240.824 94.3459V74.3459C216.253 74.3459 195.367 90.0154 187.566 111.875L206.402 118.598ZM240.824 94.3459C257.265 94.3459 271.193 105.212 275.77 120.178L294.896 114.329C287.82 91.1916 266.303 74.3459 240.824 74.3459V94.3459ZM290.975 125.51C296.834 121.506 303.908 119.165 311.559 119.165V99.1651C299.755 99.1651 288.768 102.794 279.69 108.998L290.975 125.51ZM311.559 119.165C331.737 119.165 348.095 135.523 348.095 155.701H368.095C368.095 124.477 342.783 99.1651 311.559 99.1651V119.165ZM348.095 155.701C348.095 175.387 332.521 191.441 313.027 192.208L313.813 212.193C343.996 211.005 368.095 186.17 368.095 155.701H348.095ZM303.42 202.2V287.068H323.42V202.2H303.42ZM303.42 287.068C303.42 285.411 304.764 284.068 306.42 284.068V304.068C315.809 304.068 323.42 296.456 323.42 287.068H303.42ZM306.42 284.068H175.229V304.068H306.42V284.068ZM175.229 284.068C176.885 284.068 178.229 285.411 178.229 287.068H158.229C158.229 296.456 165.84 304.068 175.229 304.068V284.068ZM178.229 287.068V199.718H158.229V287.068H178.229Z" fill="black" fill-opacity="0.4" mask="url(#path-3-inside-1_221_722)"/>
<line x1="178.192" y1="312.646" x2="303.457" y2="312.646" stroke="black" stroke-opacity="0.4" stroke-width="10" stroke-linecap="round"/>
<line x1="178.192" y1="337.465" x2="303.457" y2="337.465" stroke="black" stroke-opacity="0.4" stroke-width="10" stroke-linecap="round"/>
</g>
</g>
</g>
<defs>
<clipPath id="clip0_221_722">
<rect width="267.265" height="376" fill="white" transform="translate(0.591919)"/>
</clipPath>
</defs>
</svg>
